<svg title="Nebraska" role="img" aria-label="Nebraska" xmlns="http://www.w3.org/2000/svg" xmlns:xl="http://www.w3.org/1999/xlink" xmlns:dc="http://purl.org/dc/elements/1.1/" version="1.1" viewBox="0 0 100 100" width="30px" height="30px" style="position: relative; top: 10px;"><defs/><g stroke="none" stroke-opacity="1" stroke-dasharray="none" fill="none" fill-opacity="1" class="svgne"><g><path d="M 5 29 L 5 53.470588 C 5 54.022873 5.4477153 54.470588 6 54.470588 L 25.17647 54.470588 C 25.728755 54.470588 26.17647 54.918303 26.17647 55.470588 L 26.17647 67.235294 C 26.17647 67.78758 26.624186 68.235294 27.17647 68.235294 L 95 68.235294 C 95 68.235294 92.882353 64 91.82353 61.882353 C 90.764706 59.764706 88.64706 58.705882 88.64706 56.588235 C 88.64706 54.470588 87 47 86.52941 46 C 86.058824 45 82.29412 39.64706 82.29412 37.529412 C 82.29412 35.411765 81.235294 32.235294 77 31.17647 C 72.764706 30.117647 73.458824 29.435294 72.764706 29.058824 C 71 29 68.52941 29.058824 67.47059 29.058824 C 66.411765 29.058824 67.47059 30.117647 65.35294 30.117647 C 63.235294 30.117647 61.117647 28 61.117647 28 L 57.941176 28 L 6 28 C 5.4477153 28 5 28.447715 5 29 Z" /></g></g></svg>